<svg width="1440" height="803" viewBox="0 0 1440 803" fill="none" xmlns="http://www.w3.org/2000/svg">
<path fill-rule="evenodd" clip-rule="evenodd" d="M1440 803V238.363C1401.83 230.543 1291.9 219.595 1157.5 238.363C1090.09 247.776 1016.23 275.905 936.296 306.352C817.018 351.782 684.193 402.371 539 403.648C345 405.355 98.8333 365.805 0 422.5V803H1440Z" fill="url(#paint0_linear)"/>
<path fill-rule="evenodd" clip-rule="evenodd" d="M1440 803V272.732C1401.83 265.388 1291.9 255.106 1157.5 272.732C1090.09 281.573 1016.23 307.989 936.296 336.583C817.018 379.247 684.193 426.758 539 427.957C345 429.559 98.8333 383.756 0 437V803H1440Z" fill="url(#paint1_linear)"/>
<defs>
<linearGradient id="paint0_linear" x1="720" y1="228" x2="803.211" y2="959.488" gradientUnits="userSpaceOnUse">
<stop stop-color="#647CBF"/>
<stop offset="1" stop-color="#2A4285"/>
</linearGradient>
<linearGradient id="paint1_linear" x1="720" y1="263" x2="793.5" y2="951" gradientUnits="userSpaceOnUse">
<stop stop-color="#2A4285"/>
<stop offset="1" stop-color="#647CBF"/>
</linearGradient>
</defs>
</svg>
