<svg width="40" height="40" viewBox="0 0 40 40" fill="none" xmlns="http://www.w3.org/2000/svg">
<path d="M30.9393 33.0607C31.5251 33.6464 32.4749 33.6464 33.0607 33.0607C33.6464 32.4749 33.6464 31.5251 33.0607 30.9393L30.9393 33.0607ZM15.4182 21.3364C12.1497 21.3364 9.5 18.6867 9.5 15.4182H6.5C6.5 20.3436 10.4928 24.3364 15.4182 24.3364V21.3364ZM9.5 15.4182C9.5 12.1497 12.1497 9.5 15.4182 9.5V6.5C10.4928 6.5 6.5 10.4928 6.5 15.4182H9.5ZM15.4182 9.5C18.6867 9.5 21.3364 12.1497 21.3364 15.4182H24.3364C24.3364 10.4928 20.3436 6.5 15.4182 6.5V9.5ZM19.603 21.7243L27.0121 29.1334L29.1334 27.0121L21.7243 19.603L19.603 21.7243ZM21.3364 15.4182C21.3364 17.0529 20.6756 18.5303 19.603 19.603L21.7243 21.7243C23.3365 20.1121 24.3364 17.8805 24.3364 15.4182H21.3364ZM19.603 19.603C18.5303 20.6756 17.0529 21.3364 15.4182 21.3364V24.3364C17.8805 24.3364 20.1121 23.3365 21.7243 21.7243L19.603 19.603ZM19.603 21.7243L30.9393 33.0607L33.0607 30.9393L21.7243 19.603L19.603 21.7243Z" fill="#232323"/>
</svg>
